PathFileType	4	(X/Y/Z)	 s03c0101.trc
DataRate	CameraRate	NumFrames	NumMarkers	Units	OrigDataRate	OrigDataStartFrame	OrigNumFrames
200	200	4	52	mm	200	1751	2000
Frame#	Time	racr			lacr			c7			jug			rlel			rdr			llel			ldr			s2			lic			ric			lasi			rasi			rpsi			lpsi			rgt			lgt			rth1			rth2			rth3			rth4			rlfc			rmfc			rsh1			rsh2			rsh3			rsh4			rlmal			rmmal			rcal			rtoe			rmt5			rmt1			lth1			lth2			lth4			lth3			llfc			lmfc			lsh1			lsh2			lsh3			lsh4			llmal			lmmal			lcal			ltoe			lmt1			lmt5			SBIKE			LBIKE			RBIKE			
		X1	Y1	Z1	X2	Y2	Z2	X3	Y3	Z3	X4	Y4	Z4	X5	Y5	Z5	X6	Y6	Z6	X7	Y7	Z7	X8	Y8	Z8	X9	Y9	Z9	X10	Y10	Z10	X11	Y11	Z11	X12	Y12	Z12	X13	Y13	Z13	X14	Y14	Z14	X15	Y15	Z15	X16	Y16	Z16	X17	Y17	Z17	X18	Y18	Z18	X19	Y19	Z19	X20	Y20	Z20	X21	Y21	Z21	X22	Y22	Z22	X23	Y23	Z23	X24	Y24	Z24	X25	Y25	Z25	X26	Y26	Z26	X27	Y27	Z27	X28	Y28	Z28	X29	Y29	Z29	X30	Y30	Z30	X31	Y31	Z31	X32	Y32	Z32	X33	Y33	Z33	X34	Y34	Z34	X35	Y35	Z35	X36	Y36	Z36	X37	Y37	Z37	X38	Y38	Z38	X39	Y39	Z39	X40	Y40	Z40	X41	Y41	Z41	X42	Y42	Z42	X43	Y43	Z43	X44	Y44	Z44	X45	Y45	Z45	X46	Y46	Z46	X47	Y47	Z47	X48	Y48	Z48	X49	Y49	Z49	X50	Y50	Z50	X51	Y51	Z51	X52	Y52	Z52	
1751	8.7550	482.941505	1412.480821	-84.040650	470.399352	1418.394291	-407.917380	395.769921	1507.392931	-247.420811	453.415610	1351.031365	-238.959174	531.268775	1145.850434	1.937886	736.243168	939.634277	-44.579663	548.706699	1155.465737	-454.646421	745.836368	926.953935	-407.404893	-98.598596	1198.181829	-228.339226	79.333089	1215.801148	-413.438114	78.393010	1224.007450	-49.003414	NaN	NaN	NaN	99.664440	1144.293222	-86.120209	-70.180901	1248.905678	-183.741115	-65.654897	1247.728828	-266.575999	14.226344	1113.375071	-33.164115	19.419050	1138.088667	-431.985282	86.334926	964.570036	-12.532297	153.284531	905.994855	-12.198796	184.641642	826.381125	-23.512457	183.239203	926.845682	-20.245128	245.221089	715.894038	-54.387164	261.958066	703.797475	-168.968848	219.816541	549.463813	-27.517450	236.257557	462.133665	-39.781080	205.461584	379.221072	-43.746723	265.811582	462.220949	-64.847229	187.548744	246.661467	-67.224205	214.136924	264.453567	-149.876392	133.177365	194.715566	-107.130496	442.564672	217.500065	-106.618502	325.814371	186.632820	-37.126142	350.033204	210.503042	-150.025003	117.465993	1049.402359	-460.338818	206.292514	1038.189151	-496.890865	225.803357	1067.765815	-484.808357	270.592282	976.875105	-511.505503	392.959244	905.667205	-517.379359	415.723168	900.113181	-384.408721	277.108629	779.556693	-504.838010	236.818814	713.069801	-467.519064	159.373519	670.853307	-447.424347	261.709423	699.558148	-441.516138	67.409357	593.825414	-403.213388	104.246102	608.997479	-315.924108	-9.678879	575.837869	-347.406987	280.687294	470.491580	-355.150450	190.341519	493.955985	-308.020081	158.168684	486.185974	-423.969391	-212.254075	946.800190	-228.956601	-4.550729	83.901115	-432.883899	-8.882787	80.946505	-32.535684	
1752	8.7600	483.005963	1412.561860	-83.705820	470.601765	1418.483615	-407.613023	395.874834	1507.459832	-247.047048	453.607444	1351.150035	-238.669691	531.190866	1145.793190	2.061781	736.241466	939.639260	-44.548320	548.633210	1155.478660	-454.646015	745.758757	926.953548	-407.388468	-98.444923	1198.209416	-228.305706	79.518589	1215.865547	-413.258065	78.507885	1223.985481	-48.911976	NaN	NaN	NaN	99.797495	1144.256878	-86.036978	-70.006371	1248.914181	-183.650037	-65.526086	1247.782847	-266.581202	14.320265	1113.333350	-33.123118	19.633100	1138.164414	-431.929965	86.381546	964.539731	-12.487352	153.330367	905.924665	-12.164855	184.657011	826.300083	-23.467888	183.289076	926.748426	-20.215045	245.155014	715.775913	-54.326376	261.938668	703.670473	-168.931441	219.718502	549.375917	-27.509221	236.133747	462.035327	-39.753592	205.326233	379.138287	-43.744586	265.692492	462.097627	-64.808369	187.361095	246.588944	-67.241235	214.000239	264.369850	-149.898002	133.007414	194.642442	-107.151722	442.409064	217.360583	-106.601723	325.640777	186.503749	-37.140901	349.853201	210.365221	-150.026752	117.607430	1049.421173	-460.257318	206.489562	1038.310559	-496.859128	225.980321	1067.835168	-484.743922	270.746393	976.940352	-511.491670	393.141493	905.679338	-517.312618	415.874156	900.083194	-384.398767	277.229835	779.571511	-504.828614	236.955361	713.096264	-467.507980	159.465964	670.904856	-447.424665	261.799664	699.591369	-441.487037	67.496098	593.882026	-403.250182	104.303939	609.066743	-315.923695	-9.587841	575.810276	-347.398388	280.807166	470.770364	-355.215446	190.461485	494.089847	-308.033630	158.324768	486.318767	-423.970334	-212.188405	946.795790	-228.751307	-4.548418	83.921700	-432.885240	-8.882807	80.946525	-32.535673	
1753	8.7650	483.055168	1412.631772	-83.386075	470.813273	1418.568542	-407.327390	396.009537	1507.542508	-246.736642	453.745884	1351.270565	-238.419406	531.136358	1145.748732	2.196521	736.225221	939.639259	-44.505733	548.570959	1155.494773	-454.641452	745.678061	926.985346	-407.393332	-98.259324	1198.254187	-228.252978	79.749371	1215.963381	-413.150807	78.641351	1223.954589	-48.866229	NaN	NaN	NaN	99.965315	1144.248014	-85.912291	-69.834310	1248.926018	-183.545233	-64.719146	1247.747972	-265.447327	14.435340	1113.293787	-33.085831	19.838730	1138.262854	-431.883161	86.434141	964.472567	-12.490048	153.357947	905.859803	-12.133094	184.651463	826.219091	-23.434749	183.333892	926.648924	-20.213202	245.114841	715.677015	-54.293134	261.900924	703.533033	-168.870201	219.585866	549.243836	-27.496185	236.010118	461.937133	-39.719435	205.197313	379.015154	-43.720429	265.585884	461.983136	-64.786381	187.197973	246.498972	-67.260314	213.925201	264.262234	-149.906074	132.798560	194.614935	-107.134345	442.268085	217.220067	-106.590229	325.435287	186.381410	-37.131853	349.694930	210.257928	-150.012299	117.783805	1049.425359	-460.219315	206.683844	1038.378473	-496.799942	226.175700	1067.902081	-484.685600	270.916504	977.004910	-511.451225	393.311671	905.687022	-517.273952	415.989386	900.064422	-384.370864	277.376063	779.609801	-504.807045	237.100648	713.160901	-467.527049	159.569438	670.961348	-447.446291	261.896244	699.618113	-441.435647	67.576607	593.935634	-403.248696	104.391042	609.124147	-315.911615	-9.501048	575.812357	-347.409676	280.986913	470.942103	-355.222956	190.614370	494.243052	-308.042147	158.485372	486.428985	-423.942663	-212.183167	946.804498	-228.754237	-4.547452	83.912953	-432.879088	-8.894114	80.954763	-32.521016	
1754	8.7700	483.100096	1412.714158	-83.091377	471.030638	1418.637814	-407.082695	396.150384	1507.593001	-246.451195	453.886025	1351.433995	-238.152341	531.091304	1145.688606	2.298034	736.219572	939.621456	-44.491460	548.525302	1155.528449	-454.637981	745.614545	926.990226	-407.399784	-98.060122	1198.269501	-228.176314	79.978299	1216.017378	-413.044227	78.726791	1223.890996	-48.782542	NaN	NaN	NaN	100.130383	1144.221639	-85.820748	-69.652727	1248.920354	-183.479071	-64.522767	1247.751185	-265.402562	14.540445	1113.263069	-33.066804	20.077343	1138.364620	-431.830650	86.488720	964.428602	-12.482219	153.374995	905.780722	-12.094032	184.646141	826.113013	-23.398815	183.359634	926.563799	-20.171648	245.052007	715.546632	-54.267216	261.833869	703.417896	-168.829414	219.475363	549.122415	-27.484143	235.908848	461.828850	-39.674348	205.074539	378.911933	-43.735502	265.490963	461.863275	-64.775306	187.020850	246.402986	-67.260501	213.747221	264.160880	-149.898205	132.615333	194.558240	-107.123391	442.127940	217.090083	-106.576778	325.225344	186.227428	-37.117806	349.503926	210.103721	-150.003802	118.047154	1049.572855	-460.282722	206.878074	1038.440444	-496.739641	226.382975	1067.945975	-484.619890	271.089458	977.068760	-511.428090	393.483063	905.699007	-517.247191	416.163230	900.048270	-384.327196	277.538832	779.638162	-504.770243	237.225104	713.193920	-467.514826	159.675826	671.027798	-447.451846	262.011518	699.669525	-441.411557	67.678841	593.994603	-403.252834	104.709148	609.048477	-315.654505	-9.383646	575.812275	-347.416008	281.133423	471.181510	-355.155247	190.807711	494.399087	-308.047941	158.648969	486.572180	-423.941071	-212.176587	946.805731	-228.749437	-4.533722	83.915178	-432.884191	-8.885689	80.955973	-32.530451	
